<mxfile host="app.diagrams.net" agent="Mozilla/5.0 (Windows NT 10.0; Win64; x64) AppleWebKit/537.36 (KHTML, like Gecko) Chrome/128.0.0.0 Safari/537.36" version="24.7.10">
  <diagram name="Página-1" id="La3GkKexZSpRXjlH1y2v">
    <mxGraphModel grid="1" page="1" gridSize="10" guides="1" tooltips="1" connect="1" arrows="1" fold="1" pageScale="1" pageWidth="827" pageHeight="1169" math="0" shadow="0">
      <root>
        <mxCell id="0" />
        <mxCell id="1" parent="0" />
        <mxCell id="FuZakwr7F0J4t-UXFJIS-2" value="" style="swimlane;whiteSpace=wrap;html=1;" vertex="1" parent="1">
          <mxGeometry x="70" y="60" width="840" height="760" as="geometry" />
        </mxCell>
        <mxCell id="FuZakwr7F0J4t-UXFJIS-37" style="edgeStyle=orthogonalEdgeStyle;rounded=0;orthogonalLoop=1;jettySize=auto;html=1;exitX=0.5;exitY=1;exitDx=0;exitDy=0;" edge="1" parent="FuZakwr7F0J4t-UXFJIS-2" source="FuZakwr7F0J4t-UXFJIS-1" target="FuZakwr7F0J4t-UXFJIS-5">
          <mxGeometry relative="1" as="geometry" />
        </mxCell>
        <mxCell id="FuZakwr7F0J4t-UXFJIS-1" value="" style="ellipse;whiteSpace=wrap;html=1;aspect=fixed;fillColor=#2BAAFF;" vertex="1" parent="FuZakwr7F0J4t-UXFJIS-2">
          <mxGeometry x="100" y="50" width="40" height="40" as="geometry" />
        </mxCell>
        <mxCell id="FuZakwr7F0J4t-UXFJIS-8" style="edgeStyle=orthogonalEdgeStyle;rounded=0;orthogonalLoop=1;jettySize=auto;html=1;exitX=0.5;exitY=1;exitDx=0;exitDy=0;" edge="1" parent="FuZakwr7F0J4t-UXFJIS-2" source="FuZakwr7F0J4t-UXFJIS-5" target="FuZakwr7F0J4t-UXFJIS-6">
          <mxGeometry relative="1" as="geometry" />
        </mxCell>
        <mxCell id="FuZakwr7F0J4t-UXFJIS-5" value="&lt;font style=&quot;vertical-align: inherit;&quot;&gt;&lt;font style=&quot;vertical-align: inherit;&quot;&gt;Seleccionar producto&lt;/font&gt;&lt;/font&gt;" style="rounded=1;whiteSpace=wrap;html=1;" vertex="1" parent="FuZakwr7F0J4t-UXFJIS-2">
          <mxGeometry x="60" y="130" width="120" height="60" as="geometry" />
        </mxCell>
        <mxCell id="FuZakwr7F0J4t-UXFJIS-6" value="&lt;font style=&quot;vertical-align: inherit;&quot;&gt;&lt;font style=&quot;vertical-align: inherit;&quot;&gt;Enviar a carrito de compras&lt;/font&gt;&lt;/font&gt;" style="rounded=1;whiteSpace=wrap;html=1;" vertex="1" parent="FuZakwr7F0J4t-UXFJIS-2">
          <mxGeometry x="60" y="270" width="120" height="60" as="geometry" />
        </mxCell>
        <mxCell id="FuZakwr7F0J4t-UXFJIS-20" value="&lt;font style=&quot;vertical-align: inherit;&quot;&gt;&lt;font style=&quot;vertical-align: inherit;&quot;&gt;Realizar pago&lt;/font&gt;&lt;/font&gt;" style="rounded=1;whiteSpace=wrap;html=1;" vertex="1" parent="FuZakwr7F0J4t-UXFJIS-2">
          <mxGeometry x="60" y="390" width="120" height="60" as="geometry" />
        </mxCell>
        <mxCell id="FuZakwr7F0J4t-UXFJIS-25" value="" style="ellipse;whiteSpace=wrap;html=1;aspect=fixed;fillColor=#FFB7A1;" vertex="1" parent="FuZakwr7F0J4t-UXFJIS-2">
          <mxGeometry x="240" y="650" width="50" height="50" as="geometry" />
        </mxCell>
        <mxCell id="FuZakwr7F0J4t-UXFJIS-13" value="&lt;font style=&quot;vertical-align: inherit;&quot;&gt;&lt;font style=&quot;vertical-align: inherit;&quot;&gt;Proveedor&lt;/font&gt;&lt;/font&gt;" style="swimlane;whiteSpace=wrap;html=1;" vertex="1" parent="FuZakwr7F0J4t-UXFJIS-2">
          <mxGeometry x="290" width="550" height="760" as="geometry" />
        </mxCell>
        <mxCell id="FuZakwr7F0J4t-UXFJIS-14" value="&lt;font style=&quot;vertical-align: inherit;&quot;&gt;&lt;font style=&quot;vertical-align: inherit;&quot;&gt;Vender producto&lt;/font&gt;&lt;/font&gt;" style="rounded=1;whiteSpace=wrap;html=1;" vertex="1" parent="FuZakwr7F0J4t-UXFJIS-13">
          <mxGeometry x="110" y="390" width="120" height="60" as="geometry" />
        </mxCell>
        <mxCell id="FuZakwr7F0J4t-UXFJIS-16" value="&lt;font style=&quot;vertical-align: inherit;&quot;&gt;&lt;font style=&quot;vertical-align: inherit;&quot;&gt;(Si hay)&lt;/font&gt;&lt;/font&gt;" style="text;html=1;align=center;verticalAlign=middle;whiteSpace=wrap;rounded=0;" vertex="1" parent="FuZakwr7F0J4t-UXFJIS-13">
          <mxGeometry x="265" y="390" width="60" height="30" as="geometry" />
        </mxCell>
        <mxCell id="FuZakwr7F0J4t-UXFJIS-31" style="edgeStyle=orthogonalEdgeStyle;rounded=0;orthogonalLoop=1;jettySize=auto;html=1;exitX=0;exitY=0.5;exitDx=0;exitDy=0;entryX=1;entryY=0.5;entryDx=0;entryDy=0;" edge="1" parent="FuZakwr7F0J4t-UXFJIS-13" source="FuZakwr7F0J4t-UXFJIS-17" target="FuZakwr7F0J4t-UXFJIS-30">
          <mxGeometry relative="1" as="geometry" />
        </mxCell>
        <mxCell id="FuZakwr7F0J4t-UXFJIS-17" value="&lt;font style=&quot;vertical-align: inherit;&quot;&gt;&lt;font style=&quot;vertical-align: inherit;&quot;&gt;ofrecer producto de diferente marca&lt;/font&gt;&lt;/font&gt;" style="rounded=1;whiteSpace=wrap;html=1;" vertex="1" parent="FuZakwr7F0J4t-UXFJIS-13">
          <mxGeometry x="260" y="580" width="120" height="60" as="geometry" />
        </mxCell>
        <mxCell id="FuZakwr7F0J4t-UXFJIS-11" value="&lt;font style=&quot;vertical-align: inherit;&quot;&gt;&lt;font style=&quot;vertical-align: inherit;&quot;&gt;¿Hay producto?&lt;/font&gt;&lt;/font&gt;" style="rhombus;whiteSpace=wrap;html=1;" vertex="1" parent="FuZakwr7F0J4t-UXFJIS-13">
          <mxGeometry x="400" y="260" width="80" height="80" as="geometry" />
        </mxCell>
        <mxCell id="FuZakwr7F0J4t-UXFJIS-15" style="edgeStyle=orthogonalEdgeStyle;rounded=0;orthogonalLoop=1;jettySize=auto;html=1;exitX=1;exitY=0.5;exitDx=0;exitDy=0;entryX=1;entryY=0.5;entryDx=0;entryDy=0;" edge="1" parent="FuZakwr7F0J4t-UXFJIS-13" source="FuZakwr7F0J4t-UXFJIS-11" target="FuZakwr7F0J4t-UXFJIS-14">
          <mxGeometry relative="1" as="geometry" />
        </mxCell>
        <mxCell id="FuZakwr7F0J4t-UXFJIS-18" style="edgeStyle=orthogonalEdgeStyle;rounded=0;orthogonalLoop=1;jettySize=auto;html=1;exitX=0.5;exitY=1;exitDx=0;exitDy=0;entryX=1;entryY=0.5;entryDx=0;entryDy=0;" edge="1" parent="FuZakwr7F0J4t-UXFJIS-13" source="FuZakwr7F0J4t-UXFJIS-11" target="FuZakwr7F0J4t-UXFJIS-17">
          <mxGeometry relative="1" as="geometry" />
        </mxCell>
        <mxCell id="FuZakwr7F0J4t-UXFJIS-19" value="&lt;font style=&quot;vertical-align: inherit;&quot;&gt;&lt;font style=&quot;vertical-align: inherit;&quot;&gt;&lt;font style=&quot;vertical-align: inherit;&quot;&gt;&lt;font style=&quot;vertical-align: inherit;&quot;&gt;(Si no hay)&lt;/font&gt;&lt;/font&gt;&lt;/font&gt;&lt;/font&gt;" style="text;html=1;align=center;verticalAlign=middle;whiteSpace=wrap;rounded=0;" vertex="1" parent="FuZakwr7F0J4t-UXFJIS-13">
          <mxGeometry x="370" y="495" width="75" height="30" as="geometry" />
        </mxCell>
        <mxCell id="FuZakwr7F0J4t-UXFJIS-9" value="&lt;font style=&quot;vertical-align: inherit;&quot;&gt;&lt;font style=&quot;vertical-align: inherit;&quot;&gt;Verificar que este el producto en el inventario&lt;/font&gt;&lt;/font&gt;" style="rounded=1;whiteSpace=wrap;html=1;" vertex="1" parent="FuZakwr7F0J4t-UXFJIS-13">
          <mxGeometry x="10" y="270" width="120" height="60" as="geometry" />
        </mxCell>
        <mxCell id="FuZakwr7F0J4t-UXFJIS-12" style="edgeStyle=orthogonalEdgeStyle;rounded=0;orthogonalLoop=1;jettySize=auto;html=1;exitX=1;exitY=0.5;exitDx=0;exitDy=0;entryX=0;entryY=0.5;entryDx=0;entryDy=0;" edge="1" parent="FuZakwr7F0J4t-UXFJIS-13" source="FuZakwr7F0J4t-UXFJIS-9" target="FuZakwr7F0J4t-UXFJIS-11">
          <mxGeometry relative="1" as="geometry" />
        </mxCell>
        <mxCell id="FuZakwr7F0J4t-UXFJIS-21" value="&lt;font style=&quot;vertical-align: inherit;&quot;&gt;&lt;font style=&quot;vertical-align: inherit;&quot;&gt;&lt;font style=&quot;vertical-align: inherit;&quot;&gt;&lt;font style=&quot;vertical-align: inherit;&quot;&gt;Generar factura y enviar fecha de envío&lt;/font&gt;&lt;/font&gt;&lt;/font&gt;&lt;/font&gt;" style="rounded=1;whiteSpace=wrap;html=1;" vertex="1" parent="FuZakwr7F0J4t-UXFJIS-13">
          <mxGeometry x="10" y="500" width="120" height="60" as="geometry" />
        </mxCell>
        <mxCell id="FuZakwr7F0J4t-UXFJIS-32" style="edgeStyle=orthogonalEdgeStyle;rounded=0;orthogonalLoop=1;jettySize=auto;html=1;exitX=0.5;exitY=0;exitDx=0;exitDy=0;entryX=0.5;entryY=1;entryDx=0;entryDy=0;" edge="1" parent="FuZakwr7F0J4t-UXFJIS-13" source="FuZakwr7F0J4t-UXFJIS-30" target="FuZakwr7F0J4t-UXFJIS-14">
          <mxGeometry relative="1" as="geometry" />
        </mxCell>
        <mxCell id="FuZakwr7F0J4t-UXFJIS-30" value="" style="rhombus;whiteSpace=wrap;html=1;" vertex="1" parent="FuZakwr7F0J4t-UXFJIS-13">
          <mxGeometry x="140" y="585" width="60" height="65" as="geometry" />
        </mxCell>
        <mxCell id="FuZakwr7F0J4t-UXFJIS-33" value="&lt;font style=&quot;vertical-align: inherit;&quot;&gt;&lt;font style=&quot;vertical-align: inherit;&quot;&gt;&lt;font style=&quot;vertical-align: inherit;&quot;&gt;&lt;font style=&quot;vertical-align: inherit;&quot;&gt;&lt;font style=&quot;vertical-align: inherit;&quot;&gt;&lt;font style=&quot;vertical-align: inherit;&quot;&gt;&lt;font style=&quot;vertical-align: inherit;&quot;&gt;&lt;font style=&quot;vertical-align: inherit;&quot;&gt;&lt;font style=&quot;vertical-align: inherit;&quot;&gt;&lt;font style=&quot;vertical-align: inherit;&quot;&gt;(Si lo desea)&lt;/font&gt;&lt;/font&gt;&lt;/font&gt;&lt;/font&gt;&lt;/font&gt;&lt;/font&gt;&lt;/font&gt;&lt;/font&gt;&lt;/font&gt;&lt;/font&gt;" style="text;html=1;align=center;verticalAlign=middle;whiteSpace=wrap;rounded=0;" vertex="1" parent="FuZakwr7F0J4t-UXFJIS-13">
          <mxGeometry x="170" y="490" width="75" height="30" as="geometry" />
        </mxCell>
        <mxCell id="FuZakwr7F0J4t-UXFJIS-35" value="&lt;font style=&quot;vertical-align: inherit;&quot;&gt;&lt;font style=&quot;vertical-align: inherit;&quot;&gt;(Si no lo desea)&lt;/font&gt;&lt;/font&gt;" style="text;html=1;align=center;verticalAlign=middle;whiteSpace=wrap;rounded=0;" vertex="1" parent="FuZakwr7F0J4t-UXFJIS-13">
          <mxGeometry x="10" y="640" width="130" height="30" as="geometry" />
        </mxCell>
        <mxCell id="FuZakwr7F0J4t-UXFJIS-23" style="edgeStyle=orthogonalEdgeStyle;rounded=0;orthogonalLoop=1;jettySize=auto;html=1;exitX=0;exitY=0.5;exitDx=0;exitDy=0;entryX=1;entryY=0.5;entryDx=0;entryDy=0;" edge="1" parent="FuZakwr7F0J4t-UXFJIS-2" source="FuZakwr7F0J4t-UXFJIS-14" target="FuZakwr7F0J4t-UXFJIS-20">
          <mxGeometry relative="1" as="geometry" />
        </mxCell>
        <mxCell id="FuZakwr7F0J4t-UXFJIS-10" style="edgeStyle=orthogonalEdgeStyle;rounded=0;orthogonalLoop=1;jettySize=auto;html=1;exitX=1;exitY=0.5;exitDx=0;exitDy=0;entryX=0;entryY=0.5;entryDx=0;entryDy=0;" edge="1" parent="FuZakwr7F0J4t-UXFJIS-2" source="FuZakwr7F0J4t-UXFJIS-6" target="FuZakwr7F0J4t-UXFJIS-9">
          <mxGeometry relative="1" as="geometry" />
        </mxCell>
        <mxCell id="FuZakwr7F0J4t-UXFJIS-24" style="edgeStyle=orthogonalEdgeStyle;rounded=0;orthogonalLoop=1;jettySize=auto;html=1;exitX=0.5;exitY=1;exitDx=0;exitDy=0;entryX=0;entryY=0.5;entryDx=0;entryDy=0;" edge="1" parent="FuZakwr7F0J4t-UXFJIS-2" source="FuZakwr7F0J4t-UXFJIS-20" target="FuZakwr7F0J4t-UXFJIS-21">
          <mxGeometry relative="1" as="geometry" />
        </mxCell>
        <mxCell id="FuZakwr7F0J4t-UXFJIS-26" style="edgeStyle=orthogonalEdgeStyle;rounded=0;orthogonalLoop=1;jettySize=auto;html=1;exitX=0.5;exitY=1;exitDx=0;exitDy=0;entryX=0.5;entryY=0;entryDx=0;entryDy=0;" edge="1" parent="FuZakwr7F0J4t-UXFJIS-2" source="FuZakwr7F0J4t-UXFJIS-21" target="FuZakwr7F0J4t-UXFJIS-25">
          <mxGeometry relative="1" as="geometry" />
        </mxCell>
        <mxCell id="FuZakwr7F0J4t-UXFJIS-34" style="edgeStyle=orthogonalEdgeStyle;rounded=0;orthogonalLoop=1;jettySize=auto;html=1;exitX=0.5;exitY=1;exitDx=0;exitDy=0;" edge="1" parent="FuZakwr7F0J4t-UXFJIS-2" source="FuZakwr7F0J4t-UXFJIS-30" target="FuZakwr7F0J4t-UXFJIS-25">
          <mxGeometry relative="1" as="geometry" />
        </mxCell>
        <mxCell id="FuZakwr7F0J4t-UXFJIS-36" value="&lt;font style=&quot;vertical-align: inherit;&quot;&gt;&lt;font style=&quot;vertical-align: inherit;&quot;&gt;Cliente&lt;/font&gt;&lt;/font&gt;" style="text;html=1;align=center;verticalAlign=middle;whiteSpace=wrap;rounded=0;" vertex="1" parent="1">
          <mxGeometry x="180" y="60" width="60" height="30" as="geometry" />
        </mxCell>
      </root>
    </mxGraphModel>
  </diagram>
</mxfile>
